<svg width="16" height="16" viewBox="0 0 16 16" fill="none" xmlns="http://www.w3.org/2000/svg">
<path d="M10.4961 10.3105L10.332 11.4355L10.0918 10.4219L8.4043 4.46875H7.45508L5.80859 10.4219L5.57422 11.4531L5.39258 10.3047L4.06836 4.46875H2.9375L5.00586 13H6.03125L7.78906 6.7832L7.92383 6.13281L8.05859 6.7832L9.88086 13H10.9062L12.9688 4.46875H11.8438L10.4961 10.3105Z" fill="#920031"/>
<path d="M10.4961 10.3105L10.0013 10.2384L10.0043 10.2181L10.0089 10.1982L10.4961 10.3105ZM10.332 11.4355L10.8268 11.5077L9.84551 11.5509L10.332 11.4355ZM10.0918 10.4219L10.5728 10.2855L10.5758 10.296L10.5783 10.3066L10.0918 10.4219ZM8.4043 4.46875V3.96875H8.78226L8.88534 4.33239L8.4043 4.46875ZM7.45508 4.46875L6.97317 4.33547L7.07459 3.96875H7.45508V4.46875ZM5.80859 10.4219L5.32103 10.3111L5.3236 10.2998L5.32669 10.2886L5.80859 10.4219ZM5.57422 11.4531L6.06179 11.5639L5.08036 11.5312L5.57422 11.4531ZM5.39258 10.3047L5.88018 10.194L5.88385 10.2102L5.88644 10.2266L5.39258 10.3047ZM4.06836 4.46875V3.96875H4.46762L4.55596 4.35811L4.06836 4.46875ZM2.9375 4.46875L2.45158 4.58656L2.30179 3.96875H2.9375V4.46875ZM5.00586 13V13.5H4.6126L4.51994 13.1178L5.00586 13ZM6.03125 13L6.51239 13.136L6.40948 13.5H6.03125V13ZM7.78906 6.7832L8.27866 6.88465L8.27505 6.9021L8.2702 6.91925L7.78906 6.7832ZM7.92383 6.13281L7.43423 6.03136H8.41343L7.92383 6.13281ZM8.05859 6.7832L7.57878 6.92385L7.5731 6.90445L7.56899 6.88465L8.05859 6.7832ZM9.88086 13V13.5H9.50638L9.40105 13.1406L9.88086 13ZM10.9062 13L11.3922 13.1175L11.2998 13.5H10.9062V13ZM12.9688 4.46875V3.96875H13.604L13.4547 4.58624L12.9688 4.46875ZM11.8438 4.46875L11.3565 4.35636L11.446 3.96875H11.8438V4.46875ZM10.9909 10.3827L10.8268 11.5077L9.83726 11.3634L10.0013 10.2384L10.9909 10.3827ZM9.84551 11.5509L9.60527 10.5372L10.5783 10.3066L10.8186 11.3202L9.84551 11.5509ZM9.61075 10.5582L7.92325 4.60511L8.88534 4.33239L10.5728 10.2855L9.61075 10.5582ZM8.4043 4.96875H7.45508V3.96875H8.4043V4.96875ZM7.93699 4.60203L6.2905 10.5552L5.32669 10.2886L6.97317 4.33547L7.93699 4.60203ZM6.29616 10.5327L6.06179 11.5639L5.08665 11.3423L5.32103 10.3111L6.29616 10.5327ZM5.08036 11.5312L4.89872 10.3828L5.88644 10.2266L6.06808 11.375L5.08036 11.5312ZM4.90497 10.4153L3.58075 4.57939L4.55596 4.35811L5.88018 10.194L4.90497 10.4153ZM4.06836 4.96875H2.9375V3.96875H4.06836V4.96875ZM3.42342 4.35094L5.49178 12.8822L4.51994 13.1178L2.45158 4.58656L3.42342 4.35094ZM5.00586 12.5H6.03125V13.5H5.00586V12.5ZM5.55011 12.864L7.30793 6.64716L8.2702 6.91925L6.51239 13.136L5.55011 12.864ZM7.29946 6.68175L7.43423 6.03136L8.41343 6.23426L8.27866 6.88465L7.29946 6.68175ZM8.41343 6.03136L8.54819 6.68175L7.56899 6.88465L7.43423 6.23426L8.41343 6.03136ZM8.53841 6.64256L10.3607 12.8594L9.40105 13.1406L7.57878 6.92385L8.53841 6.64256ZM9.88086 12.5H10.9062V13.5H9.88086V12.5ZM10.4203 12.8825L12.4828 4.35126L13.4547 4.58624L11.3922 13.1175L10.4203 12.8825ZM12.9688 4.96875H11.8438V3.96875H12.9688V4.96875ZM12.331 4.58114L10.9833 10.4229L10.0089 10.1982L11.3565 4.35636L12.331 4.58114Z" fill="#920031"/>
</svg>
